<?xml version="1.0" encoding="utf-8"?>
<!-- Generator: Adobe Illustrator 26.5.0, SVG Export Plug-In . SVG Version: 6.00 Build 0)  -->
<svg version="1.0"
	 id="svg4" xmlns:inkscape="http://www.inkscape.org/namespaces/inkscape" xmlns:sodipodi="http://sodipodi.sourceforge.net/DTD/sodipodi-0.dtd" xmlns:svg="http://www.w3.org/2000/svg"
	 xmlns="http://www.w3.org/2000/svg" xmlns:xlink="http://www.w3.org/1999/xlink" x="0px" y="0px" viewBox="0 0 1152 732.17"
	 style="enable-background:new 0 0 1152 732.17;" xml:space="preserve">
<style type="text/css">
	.st0{fill:#461E06;}
</style>
<sodipodi:namedview  bordercolor="#666666" borderopacity="1.0" id="namedview6" inkscape:current-layer="svg4" inkscape:cx="517.44193" inkscape:cy="57.772643" inkscape:pagecheckerboard="0" inkscape:pageopacity="0.0" inkscape:pageshadow="2" inkscape:window-height="705" inkscape:window-maximized="1" inkscape:window-width="1366" inkscape:window-x="-8" inkscape:window-y="-8" inkscape:zoom="0.3981123" pagecolor="#ffffff" showgrid="false" showguides="true">
	</sodipodi:namedview>
<g id="g3797" transform="scale(0.34936556)">
	<path id="path3421" class="st0" d="M1135.66,899.22c-97.9-0.64-179.27,87.57-179.27,194.63s78.62,194.6,177.74,194.6
		c97.9,0,178.87-83.87,178.87-193.93C1313,985.96,1233.56,899.85,1135.66,899.22L1135.66,899.22z M1137.5,1018.82
		c36.71,0,67.67,26.29,64.86,78.25c-2.17,40.08-28.77,74.67-65.48,74.67c-35.49,0-64.56-32.61-64.56-75.95
		C1072.32,1053.73,1100.79,1018.82,1137.5,1018.82z"/>
	<path id="path3419" class="st0" d="M762.6,899.22c-97.9-0.64-179.27,87.57-179.27,194.63s78.62,194.61,177.74,194.61
		c97.9,0,178.87-83.87,178.87-193.93C939.94,985.96,860.51,899.85,762.6,899.22L762.6,899.22z M764.45,1018.82
		c36.71,0,67.67,26.28,64.86,78.25c-2.17,40.08-28.77,74.67-65.48,74.67c-35.49,0-64.56-32.61-64.56-75.95
		C699.26,1053.73,727.73,1018.82,764.45,1018.82z"/>
	<path id="path3417" class="st0" d="M1657.45,904.37c-18.63,0.18-29.17,8.17-29.76,17.04c-0.68,10.22-2.51,245.64-2.93,270
		c-0.55,31.62-1.42,65.51,0.57,76.31c1.63,8.83,10.37,9.9,14.34,10.53c22.16,3.51,62.99,5.97,79.52,5.75
		c18.59-0.25,19.12-15.28,18.84-35.6c-0.28-20.36-6.45-270.49-5.95-316.13c0.28-25.39-15.04-26.28-30.4-26.97
		C1693.7,904.94,1668.24,904.26,1657.45,904.37L1657.45,904.37z"/>
	<path id="path3415" class="st0" d="M2484.49,903.11c-18.97,0.11-32.31-0.23-42.83,6.35c-8.64,5.39-7.38,14.16-7.38,36.56
		c0,87.98-2.95,208.1,14.71,256.89c14.36,39.66,42.64,92.71,147.82,92.9c53.38,0.1,87.04-24.81,107.42-58.87
		c23.85-39.85,29.98-88.78,30.05-126.85c0.13-70.09-7.51-157.1-13.07-184.78c-3.32-16.51-8.12-19.44-23.72-20.41
		c-11.2-0.69-33.46,0.31-59.16,1.43c-29.71,1.29-26.55,9.55-27.01,15.66c-1.13,14.89-0.93,72.71,4,139.5
		c4.93,66.79-1.67,105.78-35.89,102.25c-19.99-2.06-31.33-24.62-34.67-61.8c-2.56-28.5-0.31-77.04,2.65-114.88
		c3.01-38.5,1.3-70.77-1.93-75.69c-4.33-6.6-10.94-7.1-23.55-7.6C2509.38,903.27,2496.22,903.04,2484.49,903.11L2484.49,903.11z"/>
	<path id="path3413" class="st0" d="M1532.71,902.84c-8.99,0.06-14.23,5.28-17.54,10.67c-6.95,11.32-55.17,75.33-65.4,87.96
		c-7.36,9.09-6.91,8.29-7.18-1.35c-0.46-16.61-1.26-41.99-1.36-63.39c-0.11-23.66-6.81-33.65-16.79-33.64
		c-28.63,0.03-80.43-1.12-88.89,2.85c-7.55,3.54-8.96,6.23-8.94,14.76c0.22,88.1,6.26,211.75,10.29,334.04
		c0.76,23.09,2.26,31.21,8.9,37.11c6.11,5.43,20.27,4.27,47.69,1.19c37.37-4.2,39.83-7.64,44.21-10.8c3.63-2.62,2.8-10.48,3-59.46
		c0.17-41.17,0.26-51.01,1.12-59.58c0.2-1.96,0.14-4.65,1.13-4.68c0.96-0.03,2.61,3.98,5.62,9.7c1.4,2.65,27.46,54.92,50.02,88.22
		c5.14,7.59,11.6,18.97,17.88,22.8c12.56,7.66,52.79-10.79,69.07-17.28c21.75-8.68,33.56-20.8,26.82-33.74
		c-5.55-10.64-66.55-107.78-77.85-124.39c-11.3-16.61-18.61-25.66-16.37-29.65c2.79-4.96,69.08-87.82,81.17-104.2
		c5.17-7.01,7.37-14.02,7.46-19.91c0.09-5.79-1.88-10.22-5.08-12.65c-5.9-4.48-21.02-13.4-47.23-27.63
		C1545.91,905.14,1538.11,902.81,1532.71,902.84L1532.71,902.84z"/>
	<path id="path3411" class="st0" d="M3015.69,902.69c-6.55-0.04-15.99,0.05-21.54,0.35c-13.97,0.75-19.62,0.88-26.5,14.25
		c-5.09,9.89-1.81,52.76-1.15,82.53c0.66,29.76,1.65,71.67-0.23,71.81c-2.56,0.2-5.46-1.54-21.39-32.53
		c-27.05-52.6-55.51-101.56-61.46-111.89c-6.5-11.27-9.94-14.69-23.72-15.15c-26.75-0.9-51.5,0.9-77.5,1
		c-17.96,0.07-25.3,11.31-24.5,23.75c0.86,13.41,2.02,209,3,316.5c0.16,16.96,6.74,32.21,20.7,31.75
		c26.45-0.88,66.43,2.54,77.05-4.25c8.59-5.49,12.96-8.67,12.65-21.13c-0.9-35.79-3.14-151.45-3.1-160.24
		c0.02-3.44-0.16-5.45,2.62-5.46c3.35-0.02,7.32,13.49,13.3,27.77c6.97,16.67,18.85,44.18,29.89,67.96
		c29.67,63.93,34.17,83.48,47.79,92.05c14.19,8.93,14.04,5.89,51.61,5.25c31.28-0.53,42.31,4.6,52.06-6.68
		c8.76-10.15,11-21.69,11-34.15c0.04-104.56,3.33-211.59,3.62-320.39c0.03-12.46-4.31-20.88-16.75-21.75
		C3052.38,903.29,3035.33,902.8,3015.69,902.69L3015.69,902.69z"/>
	<path id="path3405" class="st0" d="M1802.8,898.14c-21.76,0.05-38.07,12.3-38.03,27.06c0.29,107.19,0.83,308.11,0.86,321.56
		c0.06,20.43,0.24,36.54,11.45,38.71c12.05,2.34,136.79,1.94,176.52,2.15c36.57,0.2,44.61-4.98,48.55-19.03
		c3.85-13.74,1.07-53.46-1.26-73.91c-1.45-12.75-33.51-9.62-68.79-9.62c-39.47,0-55.51-4-55.51-12.37c0-7.66-0.2-17.58,0.76-31.7
		c1.04-15.34,61.06-11.99,88.78-11.99c11.34,0,22.59,0.76,26.44-1.68c6.23-3.95,7.11-12.51,7.56-17.6
		c0.81-8.99,1.66-26.4-0.73-50.68c-1.05-10.64-24.69-11.3-62.97-12.29c-28.84-0.74-47.27,1.59-55.78-7.06
		c-7.04-7.17-4.23-39.64-0.67-42.43c3.57-2.79,12.33-2.27,45.88-2.91c33.55-0.64,42.97,0.19,70.57-0.2
		c7.56-0.11,14.13-1.36,19.73-10.02c7.58-11.73,4.48-49.51,3.32-64.84c-0.88-11.53-4.03-20.19-26.71-20.19
		C1982.67,899.1,1843.75,898.04,1802.8,898.14L1802.8,898.14z"/>
	<path id="path3403" class="st0" d="M2198.37,764.24c-25.47-0.06-48.6,2.27-65.91,4.52c-46.29,6.03-82.31,12.33-82.31,30.17
		c0,26.76,4.08,193.29,7.79,325.01c2.51,88.9,2.64,154.18,7.3,167.24c4.84,13.57,10.97,16.58,25.96,16.94
		c38.76,0.92,67.41,1.78,77.48-0.5c12.44-2.82,23.96-2.53,21.87-47.15c-1.67-35.67,0.3-90.02,0.3-113.59c0-5.1,1.15-8.45,3.65-5.9
		c3.75,3.82,6.8,12.67,17.41,38.43c15.64,37.97,47.1,116.45,52.43,129.64c5.15,12.73,13.14,29.85,44.6,18.96
		c32.56-11.27,53.05-19.55,71.53-30.23c19.03-11,19.1-15.86,4.1-54.09c-22.5-57.35-47.27-116.28-53.02-132.52
		c-2.63-7.44-3.72-11.66,15.4-29.96c21.67-20.74,63.4-52.85,69.69-126.06c5.75-66.95-14.64-120.96-80.94-159.1
		C2291.23,770.47,2240.83,764.34,2198.37,764.24z M2201.24,893.14c17.07,0.2,37.15,0.88,55.58,8.25
		c14.55,5.82,27.19,16.12,27.85,36.76c0.56,17.41-0.73,27.67-11.21,37.93c-13.97,13.65-45.08,18.26-57.54,18.46
		c-15.38,0.25-26.71-1.45-37.25-3.95c-2.43-0.58-3.75,0-3.75-5.1c0-5.1-4.7-84.19-4.7-86.73c0-2.55,1.25-4.39,5-4.52
		C2180.53,894.04,2190.42,893.01,2201.24,893.14z"/>
	<path id="path3401" class="st0" d="M491.17,769.93c-63.31-0.2-134.68,17.21-197.44,74.59c-52.76,48.24-76.38,121.44-76.2,191.25
		c0.24,90.94,32.62,158.86,81.84,210.5c55.48,58.21,119.25,79.19,182.26,79.13c64.4-0.06,108.87-17.06,112.44-24.48
		c4.67-9.69-2.98-33.32-8.51-63.25c-6.84-37.02-15.43-64.32-25.9-64.17c-16.05,0.23-26.98,6.03-73.53,5.26
		c-44.69-0.75-77.13-20.64-92.49-45.16c-15.39-24.56-24.76-58.77-26.15-88.5c-1.86-39.89,11.62-89.25,46.6-114.15
		c16.71-11.9,48.33-24.51,87.02-26.2c34.31-1.5,63.87,10.42,72.37,8.87c6.22-1.14,7.36-6.78,23.1-51.74
		c18.06-51.58,20-58.21,18.06-64.09c-2.65-8.02-22.95-14.57-50.84-20.28C539.01,772.41,515.47,770,491.17,769.93z"/>
</g>
</svg>
